PathFileType	4	(X/Y/Z)	./001.trc	
DataRate	CameraRate	NumFrames	NumMarkers	Units	OrigDataRate	OrigDataStartFrame	OrigNumFrames	
180	180	4	0	mm	180	714	951	
Frame#	Time	LIAS			RIAS			LIPS			RIPS			LFTC			RFTC			CV7			SJN			TV2			SXS			TV7			LAH			RAH			LPH			RPH			LHGT			LCAJ			LHLE			LUA			LHM2			LUSP			LRSP			RHGT			RCAJ			RHLE			RHME			RUA			RHM2			RUSP			RRSP			LFLE			LTH			LFAL			LTAM			LSK			LFAX			LTTC			LFM5			LFM2			LFM1			LFCC			LDP1			RFLE			RFME			RTH			RFAL			RTAM			RSK			RFAX			RTTC			RFM5			RFM2			RFM1			RFCC			RDP1			LHME				
		X1	Y1	Z1	X2	Y2	Z2	X3	Y3	Z3	X4	Y4	Z4	X5	Y5	Z5	X6	Y6	Z6	X7	Y7	Z7	X8	Y8	Z8	X9	Y9	Z9	X10	Y10	Z10	X11	Y11	Z11	X12	Y12	Z12	X13	Y13	Z13	X14	Y14	Z14	X15	Y15	Z15	X16	Y16	Z16	X17	Y17	Z17	X18	Y18	Z18	X19	Y19	Z19	X20	Y20	Z20	X21	Y21	Z21	X22	Y22	Z22	X23	Y23	Z23	X24	Y24	Z24	X25	Y25	Z25	X26	Y26	Z26	X27	Y27	Z27	X28	Y28	Z28	X29	Y29	Z29	X30	Y30	Z30	X31	Y31	Z31	X32	Y32	Z32	X33	Y33	Z33	X34	Y34	Z34	X35	Y35	Z35	X36	Y36	Z36	X37	Y37	Z37	X38	Y38	Z38	X39	Y39	Z39	X40	Y40	Z40	X41	Y41	Z41	X42	Y42	Z42	X43	Y43	Z43	X44	Y44	Z44	X45	Y45	Z45	X46	Y46	Z46	X47	Y47	Z47	X48	Y48	Z48	X49	Y49	Z49	X50	Y50	Z50	X51	Y51	Z51	X52	Y52	Z52	X53	Y53	Z53	X54	Y54	Z54	X55	Y55	Z55	X56	Y56	Z56		
	
7.140000000000000000e+02	3.961110999999999827e+00	2.667370000000000232e+02	8.735059999999999718e+02	-6.787400000000000944e+01	1.890769999999999982e+02	9.033210000000000264e+02	1.468199999999999932e+02	6.137999999999999545e+01	1.040278999999999996e+03	-9.382300000000000750e+01	2.940800000000000125e+01	1.059049999999999955e+03	1.122199999999999953e+01	2.433410000000000082e+02	8.086609999999999445e+02	-1.407560000000000002e+02	3.085200000000000031e+01	8.325019999999999527e+02	1.739550000000000125e+02	2.277049999999999841e+02	1.386855999999999995e+03	5.505000000000000782e+00	3.666429999999999723e+02	1.259703999999999951e+03	2.950499999999999901e+01	1.704179999999999779e+02	1.326605999999999995e+03	9.028999999999999915e+00	3.715360000000000014e+02	1.143186999999999898e+03	2.706400000000000006e+01	1.013960000000000008e+02	1.223826000000000022e+03	-2.786000000000000032e+00	3.691479999999999677e+02	1.583898999999999887e+03	1.662500000000000000e+01	2.868180000000000405e+02	1.561309999999999945e+03	1.228080000000000069e+02	3.145569999999999595e+02	1.528798000000000002e+03	-5.881499999999999773e+01	2.134199999999999875e+02	1.519511999999999944e+03	4.139399999999999835e+01	1.835090000000000146e+02	1.304163000000000011e+03	-1.468540000000000134e+02	3.472259999999999991e+02	1.316726000000000113e+03	-1.673189999999999884e+02	3.628910000000000196e+02	1.031995999999999867e+03	-2.622050000000000409e+02	2.891820000000000164e+02	1.115248000000000047e+03	-2.723799999999999955e+02	4.463880000000000337e+02	1.136900999999999840e+03	2.442300000000000182e+01	4.031569999999999823e+02	1.053951999999999998e+03	-3.401499999999999346e+01	4.223960000000000150e+02	1.139570999999999913e+03	-3.806400000000000006e+01	1.895519999999999925e+02	1.308850999999999885e+03	1.625229999999999961e+02	3.115470000000000255e+02	1.330038000000000011e+03	1.413449999999999989e+02	3.766459999999999582e+02	1.012013000000000034e+03	2.228449999999999989e+02	2.712889999999999873e+02	9.949200000000000728e+02	1.784020000000000152e+02	2.871630000000000109e+02	1.131947999999999865e+03	2.610889999999999986e+02	4.313159999999999741e+02	7.078129999999999882e+02	7.533899999999999864e+01	3.787400000000000091e+02	7.648890000000000100e+02	1.431430000000000007e+02	4.009490000000000123e+02	7.969640000000000555e+02	6.021499999999999631e+01	2.427459999999999809e+02	4.570250000000000341e+02	-7.732200000000000273e+01	2.619659999999999513e+02	5.708229999999999791e+02	1.646199999999999974e+01	2.257470000000000141e+02	1.073619999999999948e+02	-3.107400000000000162e+01	1.479139999999999873e+02	1.164939999999999998e+02	4.237500000000000000e+01	2.405629999999999882e+02	2.905760000000000218e+02	1.625100000000000122e+01	2.327790000000000248e+02	3.914150000000000205e+02	-9.644100000000000250e+01	2.348940000000000055e+02	4.421469999999999914e+02	3.559299999999999642e+01	2.985550000000000068e+02	6.384099999999999397e+01	6.842099999999999227e+01	2.641669999999999732e+02	7.698699999999999477e+01	9.766400000000000148e+01	2.190620000000000118e+02	6.107000000000000028e+01	1.231779999999999973e+02	1.364099999999999966e+02	8.612500000000000000e+01	-6.622100000000000364e+01	2.556800000000000068e+02	5.263100000000000023e+01	1.628149999999999977e+02	-4.098899999999999721e+01	4.522769999999999868e+02	1.660000000000000142e+01	1.186659999999999968e+02	4.455529999999999973e+02	2.701699999999999946e+01	6.795000000000000284e+01	6.546899999999999409e+02	1.725510000000000161e+02	-3.409070000000000391e+02	2.320480000000000018e+02	5.782000000000000028e+01	-2.570450000000000159e+02	1.809790000000000134e+02	1.510000000000000009e+00	-2.384010000000000105e+02	2.471009999999999991e+02	9.957900000000000773e+01	-1.293719999999999857e+02	5.098100000000000023e+02	1.456580000000000155e+02	-8.501000000000000512e+01	4.163990000000000009e+02	1.499550000000000125e+02	-3.549629999999999654e+02	1.166880000000000024e+02	1.119020000000000010e+02	-3.092139999999999986e+02	8.884699999999999420e+01	1.022450000000000045e+02	-2.904540000000000077e+02	6.031099999999999994e+01	7.415900000000000603e+01	-3.424099999999999682e+02	2.552409999999999854e+02	-3.148800000000000310e+01	-2.781009999999999991e+02	3.006500000000000128e+01	9.702599999999999625e+01	2.591209999999999809e+02	1.040208999999999833e+03	-1.898459999999999752e+02
7.150000000000000000e+02	3.966667000000000165e+00	2.668849999999999909e+02	8.735750000000000455e+02	-6.773000000000000398e+01	1.888779999999999859e+02	9.034720000000000937e+02	1.468870000000000005e+02	6.153200000000000358e+01	1.040184999999999945e+03	-9.409199999999999875e+01	2.931900000000000261e+01	1.059056000000000040e+03	1.089000000000000057e+01	2.435660000000000025e+02	8.086390000000000100e+02	-1.406790000000000020e+02	3.066700000000000159e+01	8.326309999999999718e+02	1.738199999999999932e+02	2.274559999999999889e+02	1.386846000000000004e+03	5.381000000000000227e+00	3.664649999999999750e+02	1.259851999999999862e+03	2.960200000000000031e+01	1.705790000000000077e+02	1.326634000000000015e+03	8.758000000000000895e+00	3.720989999999999895e+02	1.142921000000000049e+03	2.722599999999999909e+01	1.012990000000000066e+02	1.223854000000000042e+03	-3.133999999999999897e+00	3.686779999999999973e+02	1.584086000000000013e+03	1.655199999999999960e+01	2.861170000000000186e+02	1.561442999999999984e+03	1.222059999999999889e+02	3.142470000000000141e+02	1.528944999999999936e+03	-5.895700000000000074e+01	2.130629999999999882e+02	1.519584000000000060e+03	4.117799999999999727e+01	1.836500000000000057e+02	1.304134000000000015e+03	-1.471179999999999950e+02	3.473649999999999523e+02	1.316730999999999995e+03	-1.673080000000000211e+02	3.632600000000000477e+02	1.031922000000000025e+03	-2.619569999999999936e+02	2.895690000000000168e+02	1.115163999999999987e+03	-2.723280000000000314e+02	4.462160000000000082e+02	1.137051999999999907e+03	2.470700000000000074e+01	4.031390000000000100e+02	1.054043999999999869e+03	-3.372899999999999920e+01	4.223279999999999745e+02	1.139684999999999945e+03	-3.779099999999999682e+01	1.893960000000000150e+02	1.308749000000000024e+03	1.623199999999999932e+02	3.110999999999999659e+02	1.330219000000000051e+03	1.413259999999999934e+02	3.761220000000000141e+02	1.012347000000000094e+03	2.233280000000000030e+02	2.709869999999999663e+02	9.951050000000000182e+02	1.784679999999999893e+02	2.865079999999999814e+02	1.132244999999999891e+03	2.611349999999999909e+02	4.317379999999999995e+02	7.078210000000000264e+02	7.703000000000000114e+01	3.786649999999999636e+02	7.650249999999999773e+02	1.443470000000000084e+02	4.012850000000000250e+02	7.968429999999999609e+02	6.142499999999999716e+01	2.428530000000000086e+02	4.570090000000000146e+02	-7.728199999999999648e+01	2.620299999999999727e+02	5.708120000000000118e+02	1.654600000000000293e+01	2.257530000000000143e+02	1.073569999999999993e+02	-3.109400000000000119e+01	1.479129999999999825e+02	1.164869999999999948e+02	4.237599999999999767e+01	2.405879999999999939e+02	2.905519999999999641e+02	1.627500000000000213e+01	2.328799999999999955e+02	3.914159999999999968e+02	-9.640899999999999181e+01	2.349249999999999829e+02	4.421030000000000086e+02	3.558700000000000330e+01	2.985409999999999968e+02	6.383500000000000085e+01	6.841899999999999693e+01	2.641620000000000346e+02	7.698900000000000432e+01	9.766599999999999682e+01	2.190620000000000118e+02	6.107099999999999795e+01	1.231820000000000022e+02	1.364080000000000155e+02	8.612599999999999056e+01	-6.622100000000000364e+01	2.556820000000000164e+02	5.263700000000000045e+01	1.628060000000000116e+02	-4.085600000000000165e+01	4.522490000000000236e+02	1.668400000000000105e+01	1.187209999999999894e+02	4.455609999999999786e+02	2.702899999999999991e+01	6.779800000000000182e+01	6.548550000000000182e+02	1.726159999999999854e+02	-3.407950000000000159e+02	2.320490000000000066e+02	5.775199999999999534e+01	-2.569010000000000105e+02	1.809209999999999923e+02	1.518000000000000016e+00	-2.383569999999999993e+02	2.471140000000000043e+02	9.957500000000000284e+01	-1.294290000000000020e+02	5.098819999999999482e+02	1.455889999999999986e+02	-8.503300000000000125e+01	4.164889999999999759e+02	1.500229999999999961e+02	-3.548950000000000387e+02	1.167270000000000039e+02	1.118580000000000041e+02	-3.091650000000000205e+02	8.884400000000000830e+01	1.022420000000000044e+02	-2.904149999999999636e+02	6.028000000000000114e+01	7.415800000000000125e+01	-3.421810000000000400e+02	2.552059999999999889e+02	-3.157000000000000028e+01	-2.780919999999999845e+02	3.005499999999999972e+01	9.704500000000000171e+01	2.593530000000000086e+02	1.040189000000000078e+03	-1.897890000000000157e+02
7.160000000000000000e+02	3.972221999999999920e+00	2.670310000000000059e+02	8.736270000000000664e+02	-6.760099999999999909e+01	1.886869999999999834e+02	9.036240000000000236e+02	1.469789999999999850e+02	6.166599999999999682e+01	1.040152000000000044e+03	-9.436799999999999500e+01	2.922900000000000276e+01	1.059061999999999898e+03	1.054800000000000004e+01	2.437810000000000059e+02	8.086259999999999764e+02	-1.405980000000000132e+02	3.046499999999999986e+01	8.327529999999999291e+02	1.736850000000000023e+02	2.272810000000000059e+02	1.386940000000000055e+03	5.128000000000000114e+00	3.662920000000000300e+02	1.259997000000000071e+03	2.967900000000000205e+01	1.704749999999999943e+02	1.326794999999999845e+03	8.419999999999999929e+00	3.726650000000000205e+02	1.142653999999999996e+03	2.739700000000000202e+01	1.012150000000000034e+02	1.223761000000000195e+03	-3.407999999999999918e+00	3.682520000000000095e+02	1.584290999999999940e+03	1.640500000000000114e+01	2.856719999999999686e+02	1.561592000000000098e+03	1.220340000000000060e+02	3.138929999999999723e+02	1.529037000000000035e+03	-5.911099999999999710e+01	2.126879999999999882e+02	1.519641999999999825e+03	4.092999999999999972e+01	1.837769999999999868e+02	1.304107999999999947e+03	-1.473979999999999961e+02	3.475199999999999818e+02	1.316737000000000080e+03	-1.673170000000000073e+02	3.636250000000000000e+02	1.031849999999999909e+03	-2.616959999999999695e+02	2.899419999999999504e+02	1.115088999999999942e+03	-2.722769999999999868e+02	4.460430000000000064e+02	1.137223000000000184e+03	2.500600000000000023e+01	4.031370000000000005e+02	1.054151000000000067e+03	-3.343200000000000216e+01	4.222529999999999859e+02	1.139820000000000164e+03	-3.750699999999999790e+01	1.888839999999999861e+02	1.309067000000000007e+03	1.619639999999999986e+02	3.106570000000000391e+02	1.330415999999999940e+03	1.412770000000000152e+02	3.756340000000000146e+02	1.012669000000000096e+03	2.238000000000000114e+02	2.707019999999999982e+02	9.952999999999999545e+02	1.785259999999999820e+02	2.859279999999999973e+02	1.132544000000000096e+03	2.611479999999999677e+02	4.321630000000000109e+02	7.078520000000000891e+02	7.861299999999999955e+01	3.789420000000000073e+02	7.654629999999999654e+02	1.466270000000000095e+02	4.015919999999999845e+02	7.967440000000000282e+02	6.255499999999999972e+01	2.429459999999999980e+02	4.569869999999999663e+02	-7.724599999999999511e+01	2.621019999999999754e+02	5.708089999999999691e+02	1.663400000000000034e+01	2.257550000000000239e+02	1.073479999999999990e+02	-3.108399999999999963e+01	1.479109999999999729e+02	1.164869999999999948e+02	4.236500000000000199e+01	2.406179999999999950e+02	2.905369999999999777e+02	1.628599999999999781e+01	2.329699999999999989e+02	3.914039999999999964e+02	-9.637600000000000477e+01	2.349699999999999989e+02	4.420790000000000077e+02	3.562700000000000244e+01	2.985369999999999777e+02	6.383400000000000318e+01	6.841400000000000148e+01	2.641620000000000346e+02	7.698299999999998988e+01	9.767099999999999227e+01	2.190589999999999975e+02	6.106700000000000017e+01	1.231860000000000070e+02	1.364120000000000061e+02	8.611799999999999500e+01	-6.621800000000000352e+01	2.556790000000000020e+02	5.262800000000000011e+01	1.628029999999999973e+02	-4.071500000000000341e+01	4.522330000000000041e+02	1.678299999999999770e+01	1.188079999999999927e+02	4.455640000000000214e+02	2.703200000000000003e+01	6.765599999999999170e+01	6.550120000000000573e+02	1.726970000000000027e+02	-3.407090000000000032e+02	2.320600000000000023e+02	5.767400000000000659e+01	-2.567590000000000146e+02	1.808780000000000143e+02	1.524000000000000021e+00	-2.383119999999999834e+02	2.471339999999999861e+02	9.955700000000000216e+01	-1.294829999999999757e+02	5.099510000000000218e+02	1.455049999999999955e+02	-8.504800000000000182e+01	4.165670000000000073e+02	1.500879999999999939e+02	-3.548360000000000127e+02	1.167549999999999955e+02	1.118119999999999976e+02	-3.091030000000000086e+02	8.884400000000000830e+01	1.022120000000000033e+02	-2.902900000000000205e+02	6.030100000000000193e+01	7.431500000000001194e+01	-3.419849999999999568e+02	2.551769999999999925e+02	-3.163899999999999935e+01	-2.780730000000000359e+02	3.004599999999999937e+01	9.706199999999999761e+01	2.595779999999999745e+02	1.040175000000000182e+03	-1.897369999999999948e+02
7.170000000000000000e+02	3.977777999999999814e+00	2.671809999999999832e+02	8.736899999999999409e+02	-6.748400000000000887e+01	1.884639999999999986e+02	9.037599999999999909e+02	1.470380000000000109e+02	6.178499999999999659e+01	1.040116999999999962e+03	-9.462199999999999989e+01	2.915099999999999980e+01	1.059059999999999945e+03	1.022000000000000064e+01	2.440120000000000005e+02	8.086190000000000282e+02	-1.405270000000000152e+02	3.026999999999999957e+01	8.328700000000000045e+02	1.735569999999999879e+02	2.271170000000000186e+02	1.387030999999999949e+03	4.863000000000000433e+00	3.661100000000000136e+02	1.260164999999999964e+03	2.975799999999999912e+01	1.702980000000000018e+02	1.326875999999999976e+03	8.082000000000000739e+00	3.732320000000000277e+02	1.142384000000000015e+03	2.757900000000000063e+01	1.010989999999999895e+02	1.223792999999999893e+03	-3.772999999999999687e+00	3.677389999999999759e+02	1.584550999999999931e+03	1.614300000000000068e+01	2.851839999999999691e+02	1.561862000000000080e+03	1.218919999999999959e+02	3.135930000000000177e+02	1.529206000000000131e+03	-5.925399999999999778e+01	2.123280000000000030e+02	1.519697000000000116e+03	4.073299999999999699e+01	1.840300000000000011e+02	1.304113000000000056e+03	-1.477110000000000127e+02	3.476630000000000109e+02	1.316748000000000047e+03	-1.673129999999999882e+02	3.638859999999999673e+02	1.031600000000000136e+03	-2.613929999999999723e+02	2.902870000000000346e+02	1.115002999999999929e+03	-2.722479999999999905e+02	4.458860000000000241e+02	1.137394000000000005e+03	2.532000000000000028e+01	4.030649999999999977e+02	1.054269999999999982e+03	-3.312400000000000233e+01	4.222080000000000268e+02	1.139932999999999993e+03	-3.728000000000000114e+01	1.883859999999999957e+02	1.309263000000000147e+03	1.616889999999999930e+02	3.102079999999999700e+02	1.330624000000000024e+03	1.412190000000000225e+02	3.751179999999999950e+02	1.013017000000000053e+03	2.243019999999999925e+02	2.703469999999999800e+02	9.955230000000000246e+02	1.785879999999999939e+02	2.852589999999999577e+02	1.132838999999999942e+03	2.612060000000000173e+02	4.326139999999999759e+02	7.079210000000000491e+02	8.023700000000000898e+01	3.788759999999999764e+02	7.656090000000000373e+02	1.478180000000000121e+02	4.018729999999999905e+02	7.966259999999999764e+02	6.377599999999999625e+01	2.430470000000000255e+02	4.569679999999999609e+02	-7.720499999999999829e+01	2.621689999999999827e+02	5.707880000000000109e+02	1.671099999999999852e+01	2.257579999999999814e+02	1.073449999999999989e+02	-3.108899999999999864e+01	1.479139999999999873e+02	1.164990000000000094e+02	4.238499999999999801e+01	2.406430000000000007e+02	2.905209999999999582e+02	1.631500000000000128e+01	2.330600000000000023e+02	3.914020000000000437e+02	-9.633899999999999864e+01	2.350629999999999882e+02	4.420690000000000168e+02	3.571600000000000108e+01	2.985320000000000391e+02	6.383900000000000574e+01	6.842799999999999727e+01	2.641580000000000155e+02	7.698000000000000398e+01	9.767300000000000182e+01	2.194530000000000030e+02	6.139399999999999835e+01	1.237130000000000081e+02	1.364180000000000064e+02	8.612500000000000000e+01	-6.621899999999999409e+01	2.556809999999999832e+02	5.263499999999999801e+01	1.627909999999999968e+02	-4.058800000000000097e+01	4.522280000000000086e+02	1.684900000000000020e+01	1.188799999999999955e+02	4.455790000000000077e+02	2.704100000000000037e+01	6.753499999999999659e+01	6.551449999999999818e+02	1.727270000000000039e+02	-3.406040000000000418e+02	2.320660000000000025e+02	5.759600000000000364e+01	-2.566240000000000236e+02	1.808340000000000032e+02	1.500999999999999890e+00	-2.382640000000000100e+02	2.471479999999999961e+02	9.953099999999999170e+01	-1.295090000000000146e+02	5.100059999999999718e+02	1.454459999999999980e+02	-8.508499999999999375e+01	4.166399999999999864e+02	1.501349999999999909e+02	-3.547590000000000146e+02	1.167870000000000061e+02	1.117839999999999918e+02	-3.090559999999999832e+02	8.885200000000000387e+01	1.021989999999999981e+02	-2.902280000000000086e+02	6.029200000000000159e+01	7.432900000000000773e+01	-3.417870000000000346e+02	2.551610000000000298e+02	-3.170700000000000074e+01	-2.780500000000000114e+02	3.002700000000000102e+01	9.705800000000000693e+01	2.598280000000000314e+02	1.040176999999999907e+03	-1.896770000000000209e+02
